HIERARCHY
ROOT Hips
{
 OFFSET 0.000000 0.000000 0.000000
 CHANNELS 6 Xposition Yposition Zposition Yrotation Xrotation Zrotation
 JOINT Chest
 {
  OFFSET 0.000000 11.395451 -0.039534
  CHANNELS 3 Yrotation Xrotation Zrotation
  JOINT Chest2
  {
   OFFSET 0.000000 9.398669 0.071813
   CHANNELS 3 Yrotation Xrotation Zrotation
   JOINT Chest3
   {
    OFFSET 0.000000 8.489801 0.000000
    CHANNELS 3 Yrotation Xrotation Zrotation
    JOINT Chest4
    {
     OFFSET 0.000000 8.489801 0.000000
     CHANNELS 3 Yrotation Xrotation Zrotation
     JOINT Neck
     {
      OFFSET 0.000000 12.404889 0.000000
      CHANNELS 3 Yrotation Xrotation Zrotation
      JOINT Head
      {
       OFFSET 0.000000 8.903270 0.092239
       CHANNELS 3 Yrotation Xrotation Zrotation
       End Site
       {
        OFFSET 0.000000 17.592497 0.007158
       }
      }
     }
     JOINT RightCollar
     {
      OFFSET -3.196775 6.966722 0.000000
      CHANNELS 3 Yrotation Xrotation Zrotation
      JOINT RightShoulder
      {
       OFFSET -15.955896 0.000000 0.000000
       CHANNELS 3 Yrotation Xrotation Zrotation
       JOINT RightElbow
       {
        OFFSET -24.792472 0.000000 0.000000
        CHANNELS 3 Yrotation Xrotation Zrotation
        JOINT RightWrist
        {
         OFFSET -20.900115 0.000000 0.025002
         CHANNELS 3 Yrotation Xrotation Zrotation
         End Site
         {
          OFFSET -16.056692 0.000000 0.000000
         }
        }
       }
      }
     }
     JOINT LeftCollar
     {
      OFFSET 3.196775 6.966722 0.000000
      CHANNELS 3 Yrotation Xrotation Zrotation
      JOINT LeftShoulder
      {
       OFFSET 15.955896 0.000000 0.000000
       CHANNELS 3 Yrotation Xrotation Zrotation
       JOINT LeftElbow
       {
        OFFSET 24.792472 0.000000 0.000000
        CHANNELS 3 Yrotation Xrotation Zrotation
        JOINT LeftWrist
        {
         OFFSET 20.900115 0.000000 0.025002
         CHANNELS 3 Yrotation Xrotation Zrotation
         End Site
         {
          OFFSET 16.056692 0.000000 0.000000
         }
        }
       }
      }
     }
    }
   }
  }
 }
 JOINT RightHip
 {
  OFFSET -9.568995 0.193718 0.019767
  CHANNELS 3 Yrotation Xrotation Zrotation
  JOINT RightKnee
  {
   OFFSET 0.000000 -56.649296 0.015402
   CHANNELS 3 Yrotation Xrotation Zrotation
   JOINT RightAnkle
   {
    OFFSET 0.000000 -41.365147 0.021264
    CHANNELS 3 Yrotation Xrotation Zrotation
    JOINT RightToe
    {
     OFFSET 0.000000 -7.465940 17.672538
     CHANNELS 3 Yrotation Xrotation Zrotation
     End Site
     {
      OFFSET 0.000000 -1.736315 7.837145
     }
    }
   }
  }
 }
 JOINT LeftHip
 {
  OFFSET 9.568995 0.193718 0.019767
  CHANNELS 3 Yrotation Xrotation Zrotation
  JOINT LeftKnee
  {
   OFFSET 0.000000 -56.649296 0.015402
   CHANNELS 3 Yrotation Xrotation Zrotation
   JOINT LeftAnkle
   {
    OFFSET 0.000000 -41.365147 0.021264
    CHANNELS 3 Yrotation Xrotation Zrotation
    JOINT LeftToe
    {
     OFFSET 0.000000 -7.465940 17.672538
     CHANNELS 3 Yrotation Xrotation Zrotation
     End Site
     {
      OFFSET 0.000000 -1.736315 7.837145
     }
    }
   }
  }
 }
}
MOTION
Frames: 5
Frame Time: 0.016667
35.211391 104.487341 263.162671 68.084067 -0.140542 -0.610169 3.188789 5.784567 -0.940093 1.427118 2.564419 -0.457063 1.427120 2.564409 -0.457065 1.072081 1.922244 -0.348737 -0.453660 12.236625 0.360824 -1.019519 -13.455762 0.881626 7.737831 -1.587504 7.657704 12.625754 -21.485265 48.063096 33.888327 -33.045188 32.221033 -8.286827 -19.062901 8.784294 2.467069 4.334430 -4.201733 11.268443 -15.372793 -57.670408 -35.747537 -53.653783 -42.912566 13.412291 -20.059922 5.561245 4.984323 -5.002840 -2.834699 -11.257533 54.227906 0.649018 24.460435 2.782948 24.477166 -4.962227 -20.784977 -34.707076 2.903203 -14.007838 -7.708334 -3.062914 13.236656 0.254656 8.665745 -1.954085 3.136359 -0.000000 -0.000000 -0.000000
36.641135 104.574499 263.588432 67.831293 -0.288799 -0.590457 3.172598 5.892138 -0.975354 1.420523 2.612028 -0.473227 1.420523 2.612028 -0.473227 1.067232 1.957935 -0.360936 -0.512311 12.317623 0.018802 -0.985610 -13.308373 0.252709 7.629782 -1.811499 7.437955 13.494447 -20.929524 47.591321 33.796075 -33.754223 32.053904 -8.298574 -19.017067 8.641878 2.426954 4.366416 -4.297499 10.679326 -15.591581 -57.428000 -35.484491 -53.845308 -43.092986 13.391234 -20.198220 5.703306 3.035502 -7.148094 -3.552743 -9.357754 58.166213 0.592646 23.899633 4.337905 25.397209 -7.491866 -17.749734 -31.334280 5.703720 -12.924167 -8.557120 -6.827307 14.009213 0.285338 9.899140 -3.106830 3.523342 0.000000 0.000000 0.000000
38.066534 104.696519 264.063858 67.578518 -0.494006 -0.557216 3.120304 5.974562 -1.017299 1.397972 2.648512 -0.491719 1.397971 2.648521 -0.491720 1.050424 1.985285 -0.374791 -0.499339 12.463419 -0.229782 -0.855164 -13.039398 -0.227935 7.571513 -2.069263 7.375147 14.331856 -20.243116 47.111667 33.752958 -34.556725 31.712855 -8.393347 -18.936790 8.556431 2.405271 4.346804 -4.304525 10.322428 -15.720847 -57.402530 -35.215070 -53.899270 -43.264346 13.362719 -20.305179 5.896582 0.972843 -9.201158 -3.945794 -7.177786 61.409318 0.632482 22.118115 3.757005 24.382447 -6.675365 -11.865788 -21.970004 5.594890 -12.012808 -8.567622 -5.699325 14.329023 0.602219 9.235271 -3.966401 3.582245 0.000000 -0.000000 -0.000000
39.475361 104.841563 264.562303 67.378659 -0.720152 -0.540177 3.029618 6.039507 -1.034054 1.358047 2.677482 -0.498397 1.358047 2.677496 -0.498398 1.020536 2.007033 -0.379688 -0.444051 12.652966 -0.431250 -0.665227 -12.688114 -0.635528 7.518607 -2.350658 7.396782 15.145685 -19.504504 46.605971 33.727474 -35.415811 31.302408 -8.553019 -18.818078 8.495602 2.403777 4.297739 -4.277549 10.031046 -15.812127 -57.484106 -34.899410 -53.890308 -43.457492 13.312218 -20.408419 6.131620 -1.201162 -11.209357 -4.072138 -4.748844 64.050337 0.813391 19.581583 1.780229 22.259119 -3.242597 -4.733672 -9.374591 4.231612 -11.136941 -8.226708 -2.467800 14.328191 0.981808 7.676492 -4.688231 3.551006 0.000000 -0.000000 -0.000000
40.869720 104.996035 265.071387 67.410067 -0.925915 -0.609006 2.878659 6.078172 -0.987567 1.290502 2.695257 -0.476032 1.290502 2.695257 -0.476032 0.969800 2.020450 -0.362655 -0.370589 12.865995 -0.576297 -0.465819 -12.292279 -0.941957 7.442064 -2.549553 7.400504 15.430470 -19.084259 46.238453 33.620519 -35.974219 31.202020 -8.719862 -18.648926 8.446288 2.394529 4.315834 -4.263382 9.640715 -15.916213 -57.654576 -34.705738 -53.928665 -43.474905 13.264127 -20.492582 6.373197 -2.935723 -13.081295 -4.069029 -3.065062 65.885539 0.806766 17.584996 -0.046711 20.114200 0.000000 -0.000000 -0.000000 3.039727 -10.204956 -7.885970 -0.166578 14.236357 1.173439 6.590240 -5.355522 3.557540 0.000000 -0.000000 -0.000000
